# xmcd
#
# Track frame offsets: 
#        183
#        14170
#        27513
#        43598
#        59510
#        73018
#        84053
#        98678
#        117473
#        131648
#        145130
#        158870
#        171613
#        185848
#        205895
#        220015
#
# Disc length: 3095 seconds
#
# Revision: 2
# Processed by: cddbd v1.5.2PL0 Copyright (c) Steve Scherf et al.
# Submitted via: ExactAudioCopy v1.0b3
#
DISCID=f10c1510
DTITLE=Various Artist - Die Superhits der Volksmusik 6-91
DYEAR=1991
DGENRE=Easy Listening
TTITLE0=Patrick Lindner - Ich hätt' Dich sowieso geküsst
TTITLE1=Original Naabtal Duo - Beim Wirt von nebenan
TTITLE2=Angela Wiedl - Santa Maria della Montagna
TTITLE3=Freddy Quinn - Heimweh
TTITLE4=Walter Scholz - Der Trompeter und der Junge mit der Mundharmon
TTITLE4=ika
TTITLE5=Die Nahetaler - Mein Schatz, ich brauch' Dich so sehr
TTITLE6=Heino - Ein Lied aus der Heimat
TTITLE7=Speelwark - Wenn der Wind weht
TTITLE8=Kastelruther Spatzen - Da war die Sonne in Deinen Augen
TTITLE9=Christina Ebner - Aber streicheln derfst mi nur Du
TTITLE10=Fred Bertelmann - Wer rastet, der rostet
TTITLE11=Schürzenjäger - Ich habe mein Wort einer ander'n gegeben
TTITLE12=Stefanie Hertel - Marianne und Michael - Jeder braucht sein Ku
TTITLE12=scheltier
TTITLE13=Vico Torriani - Des Himmels schönste Kinder
TTITLE14=Andy und Bernd - Ich bin so gut zu Dir
TTITLE15=Robert Payer - Grüß Gott, ihr Freunde
EXTD=CD von I.B.\n
EXTT0=
EXTT1=
EXTT2=
EXTT3=
EXTT4=
EXTT5=
EXTT6=
EXTT7=
EXTT8=
EXTT9=
EXTT10=
EXTT11=
EXTT12=
EXTT13=
EXTT14=
EXTT15=
PLAYORDER=
